<svg width="576" height="88" viewBox="0 0 576 88" fill="none" xmlns="http://www.w3.org/2000/svg">
<path d="M256.185 87.36C247.385 87.36 239.465 85.52 232.425 81.84C225.465 78.08 219.985 72.88 215.985 66.24C211.985 59.6 209.985 52.08 209.985 43.68C209.985 35.28 211.985 27.76 215.985 21.12C219.985 14.48 225.465 9.32 232.425 5.64C239.465 1.88 247.385 0 256.185 0C263.865 0 270.785 1.36 276.945 4.08C283.105 6.8 288.225 10.72 292.305 15.84L277.185 29.52C271.745 22.96 265.145 19.68 257.385 19.68C252.825 19.68 248.745 20.68 245.145 22.68C241.625 24.68 238.865 27.52 236.865 31.2C234.945 34.8 233.985 38.96 233.985 43.68C233.985 48.4 234.945 52.6 236.865 56.28C238.865 59.88 241.625 62.68 245.145 64.68C248.745 66.68 252.825 67.68 257.385 67.68C265.145 67.68 271.745 64.4 277.185 57.84L292.305 71.52C288.225 76.64 283.105 80.56 276.945 83.28C270.785 86 263.865 87.36 256.185 87.36Z" fill="white"/>
<path d="M59.28 85.68L95.28 1.68H71.76L72.28 1.68L36.28 85.68H59.28Z" fill="white"/>
<path d="M24.4225 58.8563L25.5311 56.28L37.0998 29.0875L25.68 1.68H0L24.4225 58.8563Z" fill="white"/>
<path d="M184.437 85.68V67.32H116.997V85.68H184.437Z" fill="white"/>
<path d="M116.997 51.96H177.837V34.2H116.997V51.96Z" fill="white"/>
<path d="M116.997 20.04H182.877V1.68H116.997V20.04Z" fill="white"/>
<path d="M311.076 20.52H336.876V85.68H360.636V20.52H386.316V1.68H311.076V20.52Z" fill="white"/>
<path d="M534.605 63.36H521.645V85.68H497.885V45H534.845C539.725 45 543.405 43.96 545.885 41.88C548.365 39.72 549.605 36.68 549.605 32.76C549.605 28.84 548.365 25.8 545.885 23.64C543.405 21.48 539.725 20.4 534.845 20.4H521.645H497.885V1.68H536.285C543.885 1.68 550.485 2.96 556.085 5.52C561.685 8 566.005 11.6 569.045 16.32C572.085 20.96 573.605 26.44 573.605 32.76C573.605 38.84 572.165 44.16 569.285 48.72C566.485 53.2 562.445 56.72 557.165 59.28L575.285 85.68H549.845L534.605 63.36Z" fill="white"/>
<path fill-rule="evenodd" clip-rule="evenodd" d="M472.638 67.9791C466.02 56.1959 438.244 6.73375 436.921 4.37841C436.263 3.20752 434.578 3.20776 433.92 4.37885C433.59 4.96768 401.86 61.4982 398.224 67.9726C395.4 73.0525 401.096 78.4535 410.652 81.0816C420.111 83.6829 425.012 84.361 435.437 84.361C445.848 84.361 450.748 83.6826 460.206 81.0816C469.762 78.4535 475.458 73.0525 472.638 67.9791ZM435.437 80.9201C425.324 80.9201 420.729 80.2845 411.564 77.7639C403.858 75.6447 399.954 71.9422 401.228 69.651C404.86 63.1828 435.418 8.72924 435.418 8.72924L469.634 69.6575C470.904 71.9422 466.999 75.6447 459.294 77.7639C450.129 80.2842 445.535 80.9201 435.437 80.9201Z" fill="white"/>
<path fill-rule="evenodd" clip-rule="evenodd" d="M431.026 2.75457C432.951 -0.675709 437.889 -0.676433 439.815 2.75328L475.532 66.354L475.538 66.3664C476.626 68.3219 476.94 70.4443 476.465 72.5329C476.006 74.553 474.865 76.3094 473.434 77.77C470.607 80.6553 466.179 82.8811 461.086 84.2817C451.335 86.9635 446.138 87.68 435.437 87.68C424.722 87.68 419.524 86.9639 409.771 84.2817C404.679 82.8811 400.25 80.6553 397.424 77.7685C395.993 76.3071 394.852 74.5497 394.394 72.5284C393.92 70.4389 394.236 68.316 395.323 66.3599L395.33 66.3475C398.966 59.8736 430.696 3.34338 431.026 2.75457ZM435.419 15.5093L422.579 38.3888C414.954 51.9762 406.925 66.2822 404.503 70.5969C404.639 70.7564 404.845 70.9663 405.148 71.2177C406.45 72.2985 408.875 73.5822 412.444 74.5637C421.315 77.0034 425.613 77.6012 435.437 77.6012C445.246 77.6012 449.543 77.0032 458.414 74.5637C461.982 73.5823 464.408 72.2984 465.712 71.2177C466.014 70.9672 466.219 70.7578 466.356 70.5985L435.419 15.5093Z" fill="white"/>
<path fill-rule="evenodd" clip-rule="evenodd" d="M472.983 68.7823C472.273 66.5593 470.307 64.611 467.318 62.9392L465.639 65.9423C467.938 67.2286 469.308 68.5868 469.706 69.8303L472.983 68.7823ZM460.549 60.1397C458.453 59.4891 456.148 58.9224 453.678 58.4508L453.033 61.8306C455.38 62.2788 457.56 62.8149 459.528 63.4258L460.549 60.1397ZM446.778 57.4308C444.515 57.1858 442.18 57.0145 439.797 56.9201L439.661 60.3583C441.966 60.4496 444.223 60.6151 446.407 60.8517L446.778 57.4308ZM432.767 56.8655C430.391 56.9221 428.055 57.0546 425.781 57.2603L426.091 60.6872C428.288 60.4884 430.549 60.3602 432.849 60.3054L432.767 56.8655ZM418.806 58.1552C416.352 58.5703 414.041 59.0768 411.913 59.665L412.83 62.9815C414.841 62.4254 417.039 61.9439 419.38 61.5478L418.806 58.1552ZM405.136 62.1107C402.307 63.4484 400.198 64.987 398.932 66.7161L401.708 68.7487C402.586 67.5504 404.252 66.3351 406.607 65.2215L405.136 62.1107Z" fill="white"/>
<path fill-rule="evenodd" clip-rule="evenodd" d="M432.744 55.9175C433.268 55.905 433.702 56.3193 433.715 56.8429L433.797 60.2828C433.803 60.5342 433.709 60.7777 433.535 60.9598C433.361 61.1418 433.123 61.2474 432.871 61.2534C430.592 61.3077 428.352 61.4348 426.176 61.6316C425.926 61.6543 425.677 61.5765 425.483 61.4154C425.29 61.2543 425.169 61.0231 425.146 60.7726L424.836 57.3457C424.789 56.8241 425.174 56.363 425.695 56.3159C427.991 56.1083 430.348 55.9746 432.744 55.9175ZM426.811 58.1238L426.95 59.6619C428.565 59.5316 430.211 59.4387 431.878 59.3842L431.841 57.8402C430.139 57.8956 428.459 57.9905 426.811 58.1238ZM439.154 56.2235C439.339 56.0529 439.584 55.9626 439.835 55.9726C442.238 56.0677 444.595 56.2406 446.88 56.488C447.13 56.5151 447.359 56.6404 447.517 56.8363C447.674 57.0323 447.748 57.2828 447.72 57.5329L447.35 60.9538C447.294 61.4744 446.826 61.8508 446.305 61.7944C444.143 61.5603 441.908 61.3963 439.624 61.3058C439.1 61.2851 438.693 60.8441 438.714 60.3207L438.85 56.8826C438.86 56.6313 438.969 56.3942 439.154 56.2235ZM440.707 57.9094L440.646 59.4525C442.315 59.5338 443.959 59.6538 445.566 59.8116L445.732 58.2762C444.091 58.1148 442.413 57.9921 440.707 57.9094ZM419.356 57.3822C419.561 57.5279 419.699 57.749 419.741 57.997L420.315 61.3897C420.402 61.9061 420.055 62.3955 419.538 62.4828C417.224 62.8742 415.059 63.349 413.082 63.8955C412.578 64.035 412.055 63.7389 411.916 63.2342L410.999 59.9177C410.932 59.6753 410.964 59.4162 411.088 59.1974C411.212 58.9786 411.418 58.818 411.66 58.751C413.823 58.1532 416.166 57.64 418.648 57.2202C418.896 57.1782 419.151 57.2365 419.356 57.3822ZM413.082 60.3339L413.493 61.8226C415.005 61.4317 416.609 61.0819 418.288 60.7767L418.03 59.2539C416.296 59.5687 414.641 59.9301 413.082 60.3339ZM452.747 58.2729C452.845 57.7585 453.342 57.4211 453.856 57.5193C456.356 57.9967 458.696 58.5716 460.83 59.234C461.33 59.3893 461.609 59.9207 461.454 60.4208L460.434 63.707C460.359 63.9472 460.193 64.1479 459.97 64.265C459.747 64.3821 459.487 64.406 459.247 64.3315C457.318 63.7325 455.172 63.2046 452.855 62.762C452.608 62.7148 452.39 62.5714 452.248 62.3634C452.107 62.1554 452.054 61.8997 452.101 61.6527L452.747 58.2729ZM454.431 59.566L454.141 61.0831C455.82 61.4268 457.413 61.8164 458.901 62.2477L459.359 60.7726C457.82 60.3255 456.172 59.9218 454.431 59.566ZM404.731 61.2535C405.205 61.0296 405.77 61.232 405.994 61.7054L407.464 64.8161C407.572 65.0435 407.585 65.3043 407.5 65.541C407.415 65.7778 407.24 65.9712 407.013 66.0787C404.714 67.1655 403.214 68.2974 402.474 69.3089C402.325 69.5118 402.102 69.6474 401.853 69.6858C401.605 69.7243 401.351 69.6624 401.148 69.5139L398.372 67.4813C397.949 67.1719 397.857 66.5785 398.167 66.156C399.563 64.2487 401.829 62.6255 404.731 61.2535ZM400.301 66.5434L401.557 67.4623C402.467 66.5128 403.759 65.6121 405.352 64.7851L404.691 63.388C402.791 64.3686 401.326 65.4274 400.301 66.5434ZM466.491 62.4763C466.746 62.0193 467.324 61.856 467.781 62.1116C470.861 63.8344 473.07 65.9387 473.887 68.4935C474.046 68.9923 473.771 69.526 473.272 69.6855L469.995 70.7335C469.755 70.8102 469.495 70.7885 469.272 70.6732C469.048 70.558 468.879 70.3587 468.803 70.1191C468.52 69.2342 467.426 68.0288 465.176 66.77C464.956 66.6472 464.794 66.4422 464.726 66.2002C464.658 65.9582 464.688 65.6989 464.811 65.4794L466.491 62.4763ZM467.673 64.2478L466.918 65.5973C468.432 66.5444 469.58 67.5811 470.217 68.6715L471.715 68.1924C471.002 66.8062 469.663 65.4812 467.673 64.2478Z" fill="white"/>
</svg>
